<svg xmlns="http://www.w3.org/2000/svg" width="500" height="500" viewBox="0 0 500 500">
  <defs>
    <style>
      .cls-1 {
        fill: #444444;
      }

      .cls-1, .cls-2, .cls-3 {
        fill-rule: evenodd;
      }

      .cls-2 {
        fill: #ff8000;
      }

      .cls-3 {
        fill: #ffc231;
      }
    </style>
  </defs>
  <path id="Color_Fill_3" data-name="Color Fill 3" class="cls-1" d="M204,48h92l10,49c5.983,0.489,10.036,3.314,16,4,2.838-3.343,7.246-4.5,11-7l1-2h2l1-2h2V89l3-1,1-2h2l2-3h2l2-3h2l1-2h2l1-2h2V75l3-1c3,5.208,8.839,8.839,13,13q6.5,6.5,13,13c2.082,2.081,3.33,4.452,6,6-0.844,1.135.127,0.145-1,1v1l-7,1v1h-5v1h-2v1h-4v1a46.22,46.22,0,0,1-12,3c-1.53-2.787-4.548-6.119-8-7-2.054,3.109-5.7,4.085-9,6v1h-2l-1,2h-2l-1,2h-2l-1,2h-2l-1,2-4,1-1,2h-2l-1,2h-2v1c-1.466.985-2.478,0.824-5,1-2.493-2.788-6.5-3.132-10-5v-1h-2v-1h-2v-1h-2v-1h-3v-1h-3v-1l-14-3q-4-22-8-44H225v1h-1c-0.081,5.49-1.685,9.085-3,13q-0.5,4.5-1,9h-1v4h-1v4h-1q-1,6-2,12c-1.223,1.909-9.191,2.008-12,3v1h-3v1l-5,1v1h-2v1h-3v1h-2v1h-2c-3.787,2.013-5.125,4.714-11,5-2.1-2.519-5.018-3.269-8-5v-1h-2q-0.5-1-1-2h-2q-0.5-1-1-2h-2q-0.5-1-1-2h-2q-0.5-1-1-2l-4-1q-0.5-1-1-2h-2q-0.5-1-1-2h-2q-0.5-1-1-2l-3-1v1c-3.151,1.856-4.02,4.925-8,6-2.643-2.592-19.786-7.476-25-8,1.161-4.458,5.185-6.184,8-9q8-8,16-16c2.6-2.6,3.841-5.9,8-7,1.628,2.412.765,0.635,3,2v1h2l1,2h2v1h2v1h2v1h2l1,2h2l1,2h2l1,2h2l1,2h2l1,2h2l1,2h2l1,2a16.14,16.14,0,0,0,8,3v-1h3V99h4V98l6-1V96c2.45-2.86.719-7.756,2-12h1q0.5-5.5,1-11h1V68C200.92,61.989,203.568,55.364,204,48ZM93,222l-20,3v51l25,4-1,5H96v5H95l-1,16c-2.941-.188-5.87-1.351-8-2H80v-1H75v-1H70v-1H65v-1H61v-1H57v-1c-3.158-1.08-5.861.066-8-2-2.173-2.484-1-18.937-1-24V205c10.729-1.819,20.1-6.249,32-7l9,18,2,1v2h1Zm359-17v91c-1.135.844-.145-0.127-1,1l-45,9q-0.5-8.5-1-17c-0.918-2.956-1.834-4.5-2-9l24-4V225l-20-3,1-3h1v-2l2-1,1-4,2-1v-2h1v-2h1v-2h1c0.716-1.322,2.015-6.468,3-7h4ZM404,307a29.849,29.849,0,0,1-3,12h-1v2h-1c-0.434,1.346.367,0.16,1,1q2.5,4.5,5,9l2,1v2l2,1v2l2,1v2h1l1,3,2,1v2l3,2v2l2,1v2l3,2v2l2,1v2h1l1,3-48,47c-4.089,4.089-12.985,16.177-19,17-1.067-1.262-1.765-1.046-3-2v-1h-2l-2-3h-2l-1-2h-2l-2-3h-2l-1-2-3-1v-1h-2l-1-2h-2l-1-2h-2l-1-2h-2l-1-2h-2l-1-2h-2v-1c-1.364-.923-1.761-0.7-4-1-5.208,5.386-13.865-.669-14,11l-9,42H204c-0.186-6.045-2.411-11.3-4-16q-2.5-15.5-5-31c-1.143-.6-1.542-1.723-2-2h-2v-1h-4c-2.936-1.015-5.254-2.575-9-3-2.532,3.819-8.118,5.413-12,8l-1,2h-2v1l-3,1-1,2h-2l-1,2h-2l-2,3h-2l-1,2h-2l-2,3a15.794,15.794,0,0,1-8,3L90,379,73,363v-2c3.149-2.108,4.828-6.793,7-10l2-1v-2l3-2v-2l2-1,1-3h1v-2l2-1v-2l2-1v-2l2-1v-2l2-1v-2l2-1v-2c0.406-.607,1.333-0.789,2-2h-1l-1-6H98v-3H97v-4a9.007,9.007,0,0,1-2-2h16v1h11s0.185,0.694,2,1c1.037,2.232,1.754,4.66,3,7h1v2h1v2l2,1c0.468,1.954-.564,1.319-1,2l-1,3h-1v2h-1v2l-2,1v2l-2,1v2l-2,1c-2.78,4.168-4.228,8.839-7,13l-2,1a16.318,16.318,0,0,0-3,8l27,26c1.319,1.319,6.626,8.727,9,8v-1l3-1v-1h2l1-2h2l1-2h2l1-2,4-1,1-2h2l1-2h2l1-2h2l1-2,4-1,1-2,5-1c2.287,2.518,5.716,3.376,9,5v1h3v1h2v1l4,1v1l6,1v1l11,2v1c3.021,2.866.691,3.728,2,8h1v5h1v7h1v5h1v5h1c1.264,4.189-.5,9.235,2,12,2.17,1.916,9.123,1,13,1h37c0.844-1.135-.127-0.145,1-1q1-8.5,2-17h1l-1-2h1v-2h1v-4h1V392h1v-5c0.013-.04.605,0.07,1-2l18-5v-1l4-1v-1h2v-1h3v-1h2v-1h2l1-2,4-1v-1c3.4-.947,6.235,2.977,8,4h2l1,2h2l1,2h2l1,2h2l1,2,4,1v1l3,1,1,2c2.867,1.913,5.876,2.435,8,5,4.458-1.16,6.185-5.185,9-8l19-19c3.08-3.08,7.3-4.492,8-10-3.326-2.871-4.5-7.226-7-11l-2-1-1-4-2-1v-2l-2-1v-2l-2-1v-2l-2-1v-2h-1v-2l-2-1v-2h-1l7-14h2C380.384,305.861,398.877,306.914,404,307Z"/>
  <path id="Color_Fill_2" data-name="Color Fill 2" class="cls-2" d="M87,105c12.848-.186,24.777,3.391,34,7l7,1v1h2v1h3v1h2v1l5,1v1l6,2v1h2v1h2v1h2v1h2v1h2v1h2q0.5,1,1,2l4,1v1l3,1q0.5,1,1,2h2v1l3,1q0.5,1,1,2h2l2,3h2l3,4h2l3,4,9,8c2.635,2.634,3.835,5.807,8,7v-1l7-1v-1h4v-1h5v-1h7c11.215-3.189,34.789-3.229,46,0h7c5.918,1.751,11.431,3.856,19,4l17-18h2l3-4,3-1,1-2h2l1-2h2l1-2h2l1-2h2l1-2,6-2,1-2,6-2v-1h2v-1h2v-1h2v-1h2v-1h2v-1h3l1-2,6-1v-1h2v-1h3v-1h4v-1h2v-1h5v-1h3v-1h4v-1h6v-1h6v-1h8v1c-5.975.5-10.843,3.656-15,6h-2l-1,2-4,1-4,5h-2l-1,2-4,3v2l-4,3-1,3-2,1-1,4-2,1-1,4h-1l-1,4h-1q-0.5,2.5-1,5h-1v3h-1v4h-1v23h1v4h1v4h1v3h1v3h1v3h1v2h1l1,4h1v2h1v2h1v2h1v2h1v2h1v2h1v2h1v2h1v2l2,1v3l2,1c2.749,4.458,3.1,9.807,7,13-0.574,2.01.12,0.865-1,2-1.564,2.439-1.134.61-3,2l-5,6h-2l-7,8h-2l-3,4h-2l-11,12h-2l-9,10-11,10v2l-8,7v2l-4,3v2l-5,4v2l-2,1-1,3h-1v2l-3,2v2l-2,1v2l-2,1v2h-1v2l-2,1-2,6-2,1-1,4h-1l-1,4h-1v3h-1l-1,4h-1v3h-1v2h-1v3h-1v3h-1v3h-1v5h-1v3h-1v4h-1q-1,11-2,22h-1v2l-2,1-1,4-12,11h-2v1h-3v1c-3.774,1.472-14.261,1.617-18,0v-1l-4-1v-1h-2l-2-3h-2l-3-4h-1v-2l-3-2v-2h-1v-2l-2-1v-2h-1v-7h-1v-9h-1v-6h-1v-3h-1v-3h-1q-0.5-4.5-1-9h-1v-2h-1q-0.5-3-1-6h-1v-2h-1v-3h-1l-2-6h-1v-2h-1v-2h-1l-2-6-2-1q-0.5-2-1-4h-1l-1-3-2-1q-0.5-2-1-4l-3-2v-2l-2-1v-2l-3-2v-2l-4-3v-2l-5-4v-2l-7-6v-2l-15-14-9-10h-2l-8-9h-2l-6-7h-2l-4-5h-2l-7-8h-1v-3c2.859-2.514,3.006-6.806,5-10l2-1v-2h1v-3l2-1v-2h1v-2h1v-2h1v-2h1v-2l2-1q0.5-2.5,1-5h1v-2h1q1-3,2-6h1v-3h1v-3h1v-3h1v-3h1v-5c1.015-3.384,2.425-18.211,1-23-3.723-12.512-10.144-23.463-17-33l-2-1-4-5h-2l-4-5-4-1q-0.5-1-1-2h-2v-1l-4-1v-1H95v-1H93v-1l-6-1v-1Z"/>
  <path id="Color_Fill_1" data-name="Color Fill 1" class="cls-3" d="M94,306c-0.141-10.1,2.4-20.358,5-28q1-5,2-10h1q0.5-3.5,1-7h1v-2h1v-3h1v-2h1v-3h1c1.643-3.38,1.855-5.9,2-11h-2v-2c-4.452-2.657-7.012-6.787-10-11l-3-2v-2l-2-1v-2l-2-1v-2l-2-1-1-4-2-1v-2H85v-2H84v-2H83v-2H82v-2H81v-2l-2-1v-3H78v-2H77l-1-6H75v-2H74v-3H73v-3H72v-3H71l-1-7H69v-4c-2.113-6.406-3.091-15.325-5-22v-9c-0.009-10.25.662-21.224,1-30,5.359-.286,9.873-1.635,15,0h8l-1,2,6,1v1h2v1l9,3q0.5,1,1,2l4,1,4,5h2l4,5,2,1v2l3,2q0.5,1.5,1,3l2,1q0.5,2,1,4l2,1q0.5,2,1,4h1q0.5,2,1,4h1q0.5,2.5,1,5h1v3h1v4h1c1.162,3.537-.124,25.549-1,28h-1v3h-1v3h-1v3h-1v3h-1q-1,3-2,6h-1v2h-1q-0.5,2.5-1,5l-2,1v2h-1v2h-1v2h-1v2h-1v2l-2,1v3h-1v2l-2,1v2c-1.94,3.438-4.472,5.993-5,11l7,6q0.5,1,1,2h2l4,5,3,1,5,6h2l8,9h2l9,10,15,14v2l7,6v2l5,4v2l4,3v2l3,2v2l2,1v2l3,2q0.5,2,1,4l2,1,1,3h1q0.5,2,1,4l2,1,2,6h1v2h1v2h1l2,6h1v3c2.056,4.677,4.775,8.144,5,15h-1v-2c-3.13-2.1-2.116-4-4-7l-2-1v-2h-1v-2l-2-1v-2l-2-1v-2l-3-2v-2l-5-4v-2l-3-2-7-8h-2l-3-4h-2l-2-3h-2l-1-2-4-1-1-2-4-1v-1l-6-2v-1h-3v-1h-3C134.9,308.044,117.092,305.964,94,306ZM435,104c0.542,8.478,1,19.093,1,29v10c-1.432,4.923-2.513,12.224-4,17v5h-1v4h-1q-0.5,3.5-1,7h-1v3h-1v3h-1v3h-1v2h-1v3h-1v2h-1v3h-1v3l-2,1v2h-1v2h-1v2h-1v2h-1v2h-1v2l-2,1-1,4-2,1v2l-2,1v2l-2,1v2l-3,2v2h-1c-2.156,2.576-4.965,4.379-6,8h-2c-0.723,2.762-.279,2.237-3,3-0.844,1.135.127,0.145-1,1-0.691-3.082-2.716-4.655-4-7v-2h-1l-1-4-2-1v-3l-2-1v-2h-1v-2h-1v-2h-1v-2h-1v-2h-1v-2h-1v-2h-1v-2h-1v-2h-1l-1-4h-1v-2h-1v-3h-1v-3h-1v-3h-1v-4h-1v-4h-1c-1.158-3.522.126-24.652,1-27h1v-3h1v-2h1v-3h1v-2h1v-2h1l1-4,2-1,1-4,3-2v-2l4-3v-2l2-1,3-4h2l4-5,4-1,1-2h2v-1l4-1v-1l5-1v-1h3v-1h3l-1-2h8C425.673,102.254,429.294,103.78,435,104ZM406,306l-28,1v1h-2v1c-1.331.11-1.638-1.632-4-1v1h-5v1h-5v1h-4v1l-7,1c-18.216,7.832-34.1,16.82-45,32l-4,3v2l-4,3-11,20h-1v-4h1q0.5-3,1-6h1v-2h1v-3h1l1-4h1v-3h1l1-4h1l1-4,2-1,2-6,2-1,1-4,2-1v-2l2-1v-2l3-2v-2h1l1-3,2-1v-2l5-4v-2l4-3v-2l8-7v-2l11-10c7.711-7.711,15.008-15.54,24-22l3-4h2l4-5,3-2v-1h2l1-2,8-6c0.166,4.545,1.6,5.3,3,8v2h1v3h1v2h1v3h1q1,5,2,10A112.117,112.117,0,0,1,406,306Z"/>
</svg>
